<svg width="2664" height="577" viewBox="0 0 2664 577" fill="none" xmlns="http://www.w3.org/2000/svg">
<path d="M415.709 520.771L333.969 333.171C333.969 333.171 352.759 320.241 359.779 314.931C384.449 297.271 399.309 272.141 399.389 240.371V187.801C399.389 130.271 366.889 77.6808 315.419 51.9408L211.749 0.10083L104.529 53.7008V84.9608C107.762 84.9608 107.762 84.9608 104.529 84.9608C50.2388 84.9608 6.24879 128.971 6.24879 183.241C6.24879 237.511 50.2588 281.521 104.529 281.521V299.381L62.2988 319.251C24.3688 337.091 0.328793 375.381 0.728793 417.291V527.211L104.419 576.291L104.539 576.351L202.819 527.211L305.559 576.351L415.709 520.771ZM211.769 20.0808L307.429 67.9208C353.119 90.7708 381.519 136.701 381.519 187.791V240.291C381.459 264.941 370.629 285.151 349.369 300.361L349.169 300.501L348.989 300.641C342.359 305.651 324.009 318.301 323.829 318.421L311.709 326.771L392.579 512.401L314.249 551.971L226.289 355.011C258.559 358.921 292.169 326.391 292.169 291.841V238.961C292.169 180.371 258.479 127.021 205.589 101.821L125.009 63.4408L211.769 20.0808ZM104.549 464.571C104.549 426.011 125.269 390.411 158.799 371.361L202.729 346.321L202.829 346.361V507.281L104.549 556.421V464.571ZM24.1288 183.271C24.1288 138.931 60.1888 102.851 104.549 102.851C148.909 102.851 184.969 138.911 184.969 183.271C184.969 227.631 148.909 263.691 104.549 263.691C60.2188 263.671 24.1288 227.611 24.1288 183.271Z" fill="black"/>
<path d="M698.719 528.611L672.839 491.761C669.639 491.991 667.119 492.101 665.299 492.101H635.639V528.611H618.499V408.611H665.299C680.839 408.611 693.069 412.321 701.989 419.751C710.899 427.181 715.359 437.411 715.359 450.431C715.359 459.691 713.069 467.571 708.499 474.091C703.929 480.601 697.409 485.341 688.959 488.321L717.419 528.601H698.719V528.611ZM689.639 470.511C695.349 465.821 698.209 459.131 698.209 450.451C698.209 441.771 695.349 435.111 689.639 430.481C683.929 425.851 675.639 423.531 664.789 423.531H635.639V477.531H664.789C675.639 477.541 683.919 475.201 689.639 470.511Z" fill="black"/>
<path d="M1051.7 513.701V528.611H964.609V408.611H1049.29V423.521H981.749V460.381H1041.92V474.951H981.749V513.701H1051.7Z" fill="black"/>
<path d="M1377.42 498.611H1313.65L1300.45 528.611H1282.79L1337.13 408.611H1354.1L1408.62 528.611H1390.62L1377.42 498.611ZM1371.42 484.901L1345.53 426.101L1319.64 484.901H1371.42Z" fill="black"/>
<path d="M1647.95 408.611H1665.09V513.701H1730.07V528.611H1647.96V408.611H1647.95Z" fill="black"/>
<path d="M1971.27 408.611H1988.42V528.611H1971.27V408.611Z" fill="black"/>
<path d="M2269.74 423.521H2228.59V408.611H2327.85V423.521H2286.7V528.611H2269.74V423.521Z" fill="black"/>
<path d="M2612.59 487.131V528.621H2595.63V486.791L2547.97 408.621H2566.31L2604.7 471.881L2643.28 408.621H2660.25L2612.59 487.131Z" fill="black"/>
<path d="M662.769 51.3408H616.939V304.041H662.769V51.3408Z" fill="black"/>
<path d="M977.169 229.321L809.769 54.7108C806.469 51.2708 802.519 49.1308 797.949 48.2708C793.379 47.3808 788.889 47.8308 784.559 49.5908C780.449 51.4608 777.069 54.3308 774.439 58.1408C771.789 61.9508 770.439 66.2008 770.439 70.9108V304.051H816.289V126.061L983.689 300.871C985.939 303.231 988.479 304.931 991.369 305.991C994.209 307.041 997.079 307.591 999.889 307.591C1003.08 307.591 1006.06 306.991 1008.9 305.831C1011.71 304.631 1014.15 303.011 1016.23 300.991C1018.26 298.901 1019.91 296.501 1021.15 293.661C1022.39 290.841 1022.99 287.791 1022.99 284.491V51.3408H977.159V229.321H977.169Z" fill="black"/>
<path d="M1144.27 53.1008C1141.46 54.2708 1139.02 55.9408 1136.96 58.0208C1134.88 60.1608 1133.28 62.6208 1132.12 65.4408C1130.93 68.2708 1130.33 71.2608 1130.33 74.4108V304.041H1176.16V200.771H1339.34V154.631H1176.16V97.1708H1359.79V51.3408H1153.43C1150.13 51.3408 1147.08 51.9108 1144.27 53.1008Z" fill="black"/>
<path d="M1497.11 51.3408H1451.28V304.041H1497.11V51.3408Z" fill="black"/>
<path d="M1811.54 229.321L1644.11 54.7008C1640.81 51.2608 1636.89 49.1208 1632.32 48.2608C1627.72 47.3708 1623.26 47.8208 1618.93 49.5808C1614.79 51.4508 1611.44 54.3208 1608.79 58.1308C1606.14 61.9408 1604.84 66.1908 1604.84 70.9008V304.041H1650.67V126.061L1818.07 300.871C1820.29 303.231 1822.85 304.931 1825.75 305.991C1828.62 307.041 1831.44 307.591 1834.27 307.591C1837.44 307.591 1840.44 306.991 1843.28 305.831C1846.09 304.631 1848.53 303.011 1850.58 300.991C1852.64 298.901 1854.3 296.501 1855.5 293.661C1856.75 290.841 1857.34 287.791 1857.34 284.491V51.3408H1811.55V229.321H1811.54Z" fill="black"/>
<path d="M2010.88 51.3408H1965.06V304.041H2010.88V51.3408Z" fill="black"/>
<path d="M2099.02 97.1708H2200.18V304.041H2246V97.1708H2346.98V51.3408H2099.02V97.1708Z" fill="black"/>
<path d="M2663.15 51.3408H2456.83C2453.52 51.3408 2450.47 51.9108 2447.66 53.1008C2444.82 54.2708 2442.41 55.9408 2440.32 58.0208C2438.27 60.1608 2436.68 62.6208 2435.48 65.4408C2434.33 68.2708 2433.73 71.2608 2433.73 74.4108V239.731C2433.73 251.581 2435.87 261.591 2440.17 269.781C2444.44 277.921 2449.8 284.581 2456.21 289.671C2462.63 294.811 2469.58 298.461 2477.09 300.711C2484.59 302.931 2491.54 304.041 2497.9 304.041H2663.16V258.241H2498.22C2492.14 258.241 2487.49 256.651 2484.32 253.481C2481.14 250.321 2479.56 245.721 2479.56 239.741V200.781H2642.58V154.641H2479.56V97.1808H2663.15V51.3408Z" fill="black"/>
</svg>
